<?xml version="1.0" encoding="UTF-8" ?>
<!DOCTYPE svg PUBLIC "-//W3C//DTD SVG 1.1//EN" "http://www.w3.org/Graphics/SVG/1.1/DTD/svg11.dtd">
<svg width="41pt" height="39pt" viewBox="0 0 41 39" version="1.1" xmlns="http://www.w3.org/2000/svg">
<g id="#ffffffff">
<path fill="#ffffff" opacity="1.00" d=" M 0.00 0.00 L 36.04 0.00 C 35.66 4.49 30.90 6.24 27.14 7.07 C 24.40 7.60 20.92 9.58 21.81 12.90 C 22.56 16.14 26.20 16.62 28.97 16.30 C 31.04 15.72 31.85 17.03 32.04 18.98 C 32.81 17.87 33.58 16.75 34.35 15.63 C 31.84 13.66 28.55 14.18 25.64 13.33 C 25.20 12.10 25.40 10.47 26.62 9.76 C 30.42 7.43 35.98 7.24 38.19 2.85 C 38.16 2.14 38.10 0.72 38.07 0.01 L 38.92 0.00 L 41.00 0.00 L 41.00 10.53 C 39.78 9.55 38.87 7.76 37.08 7.86 C 36.99 8.31 36.81 9.21 36.72 9.65 C 36.14 9.32 35.00 8.64 34.43 8.30 L 34.11 7.53 C 33.87 8.42 33.64 9.31 33.40 10.20 C 31.05 9.90 28.75 10.40 26.66 11.49 C 27.83 11.53 29.00 11.55 30.18 11.57 C 33.63 12.43 37.98 17.06 41.00 13.10 L 41.00 39.00 L 26.46 39.00 C 21.64 38.05 16.38 36.83 12.91 33.09 C 9.07 29.27 11.86 21.80 17.08 21.00 C 19.06 20.36 20.81 21.71 22.55 22.41 C 23.24 19.79 24.22 16.19 21.01 14.81 C 14.60 12.02 5.64 16.91 5.31 24.20 C 4.56 31.90 11.80 37.82 18.83 39.00 L 0.00 39.00 L 0.00 17.57 C 0.47 17.39 1.41 17.04 1.88 16.87 C 3.66 14.59 5.51 12.23 8.38 11.32 C 6.39 14.08 3.49 16.46 2.94 20.00 C 2.30 22.68 3.34 25.36 3.85 27.96 C 4.30 24.39 4.03 20.29 6.71 17.48 C 9.43 13.98 13.81 12.67 17.90 11.54 C 19.82 11.23 20.60 9.29 21.62 7.90 C 19.53 7.03 17.29 6.62 15.09 7.38 C 14.34 7.07 12.84 6.45 12.09 6.14 C 15.62 6.04 18.96 4.88 22.09 3.34 C 22.40 3.76 23.03 4.61 23.35 5.03 C 22.60 5.25 21.11 5.71 20.36 5.93 C 21.71 6.45 23.13 7.60 24.55 6.54 C 26.51 5.95 27.28 2.82 25.43 1.65 C 22.47 -0.56 19.24 2.38 16.38 3.36 C 12.50 5.52 7.99 4.68 3.77 4.60 C 5.59 5.25 7.46 5.78 9.38 6.06 C 8.95 6.46 8.10 7.25 7.68 7.65 C 8.24 8.04 8.83 8.39 9.45 8.70 C 11.95 8.99 14.47 9.07 16.98 9.33 C 13.62 11.40 9.69 9.27 6.14 10.17 C 3.29 11.61 2.19 14.92 0.34 17.32 L 0.00 16.15 L 0.00 0.00 Z" />
<path fill="#ffffff" opacity="1.00" d=" M 38.32 10.40 C 41.19 10.78 37.85 14.47 36.27 12.59 C 35.12 11.24 37.21 10.33 38.32 10.40 Z" />
<path fill="#ffffff" opacity="1.00" d=" M 7.33 24.10 C 7.83 18.64 13.91 15.33 18.95 16.11 C 20.61 16.27 21.20 17.98 21.83 19.24 C 19.01 18.86 15.87 18.58 13.42 20.35 C 9.58 22.92 8.41 28.04 9.65 32.32 C 8.40 29.75 6.78 27.09 7.33 24.10 Z" />
</g>
<g id="#d23948ff">
<path fill="#d23948" opacity="1.00" d=" M 36.04 0.00 L 38.92 0.00 L 38.07 0.01 C 38.10 0.72 38.16 2.14 38.19 2.85 C 35.98 7.24 30.42 7.43 26.62 9.76 C 25.40 10.47 25.20 12.10 25.64 13.33 C 28.55 14.18 31.84 13.66 34.35 15.63 C 33.58 16.75 32.81 17.87 32.04 18.98 C 31.85 17.03 31.04 15.72 28.97 16.30 C 26.20 16.62 22.56 16.14 21.81 12.90 C 20.92 9.58 24.40 7.60 27.14 7.07 C 30.90 6.24 35.66 4.49 36.04 0.00 Z" />
<path fill="#d23948" opacity="1.00" d=" M 16.38 3.36 C 19.24 2.38 22.47 -0.56 25.43 1.65 C 27.28 2.82 26.51 5.95 24.55 6.54 C 23.13 7.60 21.71 6.45 20.36 5.93 C 21.11 5.71 22.60 5.25 23.35 5.03 C 23.03 4.61 22.40 3.76 22.09 3.34 C 18.96 4.88 15.62 6.04 12.09 6.14 C 11.19 6.11 10.28 6.08 9.38 6.06 C 7.46 5.78 5.59 5.25 3.77 4.60 C 7.99 4.68 12.50 5.52 16.38 3.36 Z" />
<path fill="#d23948" opacity="1.00" d=" M 15.09 7.38 C 17.29 6.62 19.53 7.03 21.62 7.90 C 20.60 9.29 19.82 11.23 17.90 11.54 C 13.81 12.67 9.43 13.98 6.71 17.48 C 4.03 20.29 4.30 24.39 3.85 27.96 C 3.34 25.36 2.30 22.68 2.94 20.00 C 3.49 16.46 6.39 14.08 8.38 11.32 C 5.51 12.23 3.66 14.59 1.88 16.87 C 1.41 17.04 0.47 17.39 0.00 17.57 L 0.00 16.15 L 0.34 17.32 C 2.19 14.92 3.29 11.61 6.14 10.17 C 9.69 9.27 13.62 11.40 16.98 9.33 C 14.47 9.07 11.95 8.99 9.45 8.70 C 11.35 8.36 13.22 7.86 15.09 7.38 Z" />
<path fill="#d23948" opacity="1.00" d=" M 37.08 7.86 C 38.87 7.76 39.78 9.55 41.00 10.53 L 41.00 13.10 C 37.98 17.06 33.63 12.43 30.18 11.57 C 31.87 11.35 33.57 11.10 35.27 10.88 C 35.06 10.23 34.64 8.95 34.43 8.30 C 35.00 8.64 36.14 9.32 36.72 9.65 C 36.81 9.21 36.99 8.31 37.08 7.86 M 38.32 10.40 C 37.21 10.33 35.12 11.24 36.27 12.59 C 37.85 14.47 41.19 10.78 38.32 10.40 Z" />
<path fill="#d23948" opacity="1.00" d=" M 5.31 24.20 C 5.64 16.91 14.60 12.02 21.01 14.81 C 24.22 16.19 23.24 19.79 22.55 22.41 C 20.81 21.71 19.06 20.36 17.08 21.00 C 11.86 21.80 9.07 29.27 12.91 33.09 C 16.38 36.83 21.64 38.05 26.46 39.00 L 18.83 39.00 C 11.80 37.82 4.56 31.90 5.31 24.20 M 7.33 24.10 C 6.78 27.09 8.40 29.75 9.65 32.32 C 8.41 28.04 9.58 22.92 13.42 20.35 C 15.87 18.58 19.01 18.86 21.83 19.24 C 21.20 17.98 20.61 16.27 18.95 16.11 C 13.91 15.33 7.83 18.64 7.33 24.10 Z" />
</g>
<g id="#eba7aeff">
<path fill="#eba7ae" opacity="1.00" d=" M 9.38 6.06 C 10.28 6.08 11.19 6.11 12.09 6.14 C 12.84 6.45 14.34 7.07 15.09 7.38 C 13.22 7.86 11.35 8.36 9.45 8.70 C 8.83 8.39 8.24 8.04 7.68 7.65 C 8.10 7.25 8.95 6.46 9.38 6.06 Z" />
<path fill="#eba7ae" opacity="1.00" d=" M 33.40 10.20 C 33.64 9.31 33.87 8.42 34.11 7.53 L 34.43 8.30 C 34.64 8.95 35.06 10.23 35.27 10.88 C 33.57 11.10 31.87 11.35 30.18 11.57 C 29.00 11.55 27.83 11.53 26.66 11.49 C 28.75 10.40 31.05 9.90 33.40 10.20 Z" />
</g>
</svg>
