<?xml version="1.0" encoding="UTF-8" ?>
<!DOCTYPE svg PUBLIC "-//W3C//DTD SVG 1.1//EN" "http://www.w3.org/Graphics/SVG/1.1/DTD/svg11.dtd">
<svg width="32pt" height="26pt" viewBox="0 0 32 26" version="1.1" xmlns="http://www.w3.org/2000/svg">
<g id="#e57982ff">
<path fill="#e57982" opacity="1.00" d=" M 0.00 0.00 L 1.17 0.00 C 1.90 7.94 1.42 15.95 1.39 23.92 C 10.58 24.44 19.79 23.97 28.99 24.15 C 30.20 24.17 31.09 24.79 31.65 26.00 L 0.00 26.00 L 0.00 0.00 Z" />
<path fill="#e57982" opacity="1.00" d=" M 21.01 2.75 C 20.97 1.46 21.59 0.83 22.88 0.88 C 25.56 0.66 28.24 1.07 30.91 1.17 C 31.72 3.75 28.93 4.91 27.49 6.46 C 24.74 9.22 22.11 12.09 19.21 14.69 C 18.21 13.71 17.27 12.58 15.97 11.99 C 12.76 13.72 10.86 17.89 6.91 18.07 C 9.16 15.24 12.17 13.19 14.73 10.68 C 16.28 8.85 18.21 11.30 19.13 12.54 C 22.43 9.51 25.60 6.34 28.62 3.04 C 26.09 2.92 23.55 2.85 21.01 2.75 Z" />
<path fill="#e57982" opacity="1.00" d=" M 30.41 5.47 C 31.94 6.57 31.93 10.41 30.39 11.49 C 29.81 9.61 29.69 7.32 30.41 5.47 Z" />
</g>
<g id="#ffffffff">
<path fill="#ffffff" opacity="1.00" d=" M 1.17 0.00 L 32.00 0.00 L 32.00 26.00 L 31.65 26.00 C 31.09 24.79 30.20 24.17 28.99 24.15 C 19.79 23.97 10.58 24.44 1.39 23.92 C 1.42 15.95 1.90 7.94 1.17 0.00 M 21.01 2.75 C 23.55 2.85 26.09 2.92 28.62 3.04 C 25.60 6.34 22.43 9.51 19.13 12.54 C 18.21 11.30 16.28 8.85 14.73 10.68 C 12.17 13.19 9.16 15.24 6.91 18.07 C 10.86 17.89 12.76 13.72 15.97 11.99 C 17.27 12.58 18.21 13.71 19.21 14.69 C 22.11 12.09 24.74 9.22 27.49 6.46 C 28.93 4.91 31.72 3.75 30.91 1.17 C 28.24 1.07 25.56 0.66 22.88 0.88 C 21.59 0.83 20.97 1.46 21.01 2.75 M 30.41 5.47 C 29.69 7.32 29.81 9.61 30.39 11.49 C 31.93 10.41 31.94 6.57 30.41 5.47 Z" />
</g>
</svg>
