<?xml version="1.0" encoding="UTF-8" ?>
<!DOCTYPE svg PUBLIC "-//W3C//DTD SVG 1.1//EN" "http://www.w3.org/Graphics/SVG/1.1/DTD/svg11.dtd">
<svg width="29pt" height="29pt" viewBox="0 0 29 29" version="1.1" xmlns="http://www.w3.org/2000/svg">
<g id="#ffffffff">
<path fill="#ffffff" opacity="1.00" d=" M 0.00 0.00 L 29.00 0.00 L 29.00 29.00 L 27.80 29.00 C 28.26 23.01 27.89 17.00 28.05 11.00 C 28.00 8.44 28.28 5.82 27.62 3.32 C 26.14 1.94 24.16 2.37 22.41 2.81 C 23.87 3.59 25.40 4.25 26.80 5.14 C 27.20 12.69 27.01 20.27 26.82 27.82 C 18.60 28.01 10.36 28.23 2.16 27.80 C 1.94 27.55 1.51 27.04 1.29 26.79 C 0.76 19.55 1.35 12.27 1.05 5.01 C 2.61 4.35 4.16 3.69 5.71 3.01 C 3.78 1.94 1.74 2.46 0.00 3.64 L 0.00 0.00 M 5.89 1.00 C 6.23 3.17 5.02 6.47 7.80 7.36 C 7.96 5.24 8.01 3.12 8.06 1.00 C 7.52 1.00 6.43 1.00 5.89 1.00 M 19.98 1.00 C 20.37 3.16 19.18 6.38 21.85 7.39 C 21.99 5.27 22.05 3.13 22.06 1.00 C 21.54 1.00 20.50 1.00 19.98 1.00 M 8.52 3.79 C 12.17 4.12 15.84 4.08 19.49 3.90 C 19.21 3.52 18.66 2.77 18.38 2.39 C 15.23 2.39 10.72 0.79 8.52 3.79 M 5.43 11.84 L 4.30 13.05 C 10.80 13.38 17.32 13.33 23.82 13.10 L 22.80 11.81 C 17.07 11.33 11.15 11.27 5.43 11.84 M 4.29 19.10 L 5.43 20.22 C 9.21 20.86 13.14 20.61 16.97 20.38 C 17.38 20.06 18.21 19.43 18.63 19.11 C 13.86 18.80 9.06 18.82 4.29 19.10 Z" />
</g>
<g id="#df5763ff">
<path fill="#df5763" opacity="1.00" d=" M 5.89 1.00 C 6.43 1.00 7.52 1.00 8.06 1.00 C 8.01 3.12 7.96 5.24 7.80 7.36 C 5.02 6.47 6.23 3.17 5.89 1.00 Z" />
<path fill="#df5763" opacity="1.00" d=" M 19.98 1.00 C 20.50 1.00 21.54 1.00 22.06 1.00 C 22.05 3.13 21.99 5.27 21.85 7.39 C 19.18 6.38 20.37 3.16 19.98 1.00 Z" />
<path fill="#df5763" opacity="1.00" d=" M 0.00 3.64 C 1.74 2.46 3.78 1.94 5.71 3.01 C 4.16 3.69 2.61 4.35 1.05 5.01 C 1.35 12.27 0.76 19.55 1.29 26.79 C 1.51 27.04 1.94 27.55 2.16 27.80 C 10.36 28.23 18.60 28.01 26.82 27.82 C 27.01 20.27 27.20 12.69 26.80 5.14 C 25.40 4.25 23.87 3.59 22.41 2.81 C 24.16 2.37 26.14 1.94 27.62 3.32 C 28.28 5.82 28.00 8.44 28.05 11.00 C 27.89 17.00 28.26 23.01 27.80 29.00 L 0.00 29.00 L 0.00 3.64 Z" />
<path fill="#df5763" opacity="1.00" d=" M 8.52 3.79 C 10.72 0.79 15.23 2.39 18.38 2.39 C 18.66 2.77 19.21 3.52 19.49 3.90 C 15.84 4.08 12.17 4.12 8.52 3.79 Z" />
<path fill="#df5763" opacity="1.00" d=" M 5.43 11.84 C 11.15 11.27 17.07 11.33 22.80 11.81 L 23.82 13.10 C 17.32 13.33 10.80 13.38 4.30 13.05 L 5.43 11.84 Z" />
<path fill="#df5763" opacity="1.00" d=" M 4.29 19.10 C 9.06 18.82 13.86 18.80 18.63 19.11 C 18.21 19.43 17.38 20.06 16.97 20.38 C 13.14 20.61 9.21 20.86 5.43 20.22 L 4.29 19.10 Z" />
</g>
</svg>
