<?xml version="1.0" encoding="UTF-8" ?>
<!DOCTYPE svg PUBLIC "-//W3C//DTD SVG 1.1//EN" "http://www.w3.org/Graphics/SVG/1.1/DTD/svg11.dtd">
<svg width="34pt" height="34pt" viewBox="0 0 34 34" version="1.1" xmlns="http://www.w3.org/2000/svg">
<g id="#ffffffff">
<path fill="#ffffff" opacity="1.00" d=" M 0.00 0.00 L 9.77 0.00 C 9.82 3.25 9.78 6.51 9.82 9.76 C 6.55 9.82 3.27 9.83 0.00 9.78 L 0.00 0.00 M 1.64 4.27 C 2.18 5.71 2.27 7.88 4.18 8.20 C 5.64 8.71 6.87 7.44 8.13 6.92 C 8.10 6.19 8.06 4.73 8.04 4.00 C 7.03 3.25 6.04 2.49 5.06 1.72 C 3.92 2.57 2.79 3.43 1.64 4.27 Z" />
<path fill="#ffffff" opacity="1.00" d=" M 11.33 0.00 L 21.79 0.00 C 21.78 3.25 21.78 6.50 21.82 9.74 C 18.30 9.75 14.77 9.75 11.24 9.75 C 11.27 6.50 11.31 3.25 11.33 0.00 Z" />
<path fill="#ffffff" opacity="1.00" d=" M 23.37 0.00 L 34.00 0.00 L 34.00 34.00 L 0.00 34.00 L 0.00 23.26 C 3.27 23.27 6.55 23.34 9.82 23.33 C 9.77 26.49 9.77 29.65 9.74 32.81 L 11.30 32.88 C 11.28 29.69 11.29 26.50 11.24 23.32 C 14.77 23.31 18.30 23.31 21.84 23.32 C 21.79 26.48 21.78 29.64 21.75 32.80 L 23.34 32.90 C 23.31 29.71 23.34 26.52 23.28 23.33 C 26.80 23.35 30.34 23.37 33.85 22.96 C 30.64 21.07 26.82 21.92 23.30 21.79 C 23.33 18.28 23.33 14.78 23.29 11.27 C 26.53 11.29 29.76 11.22 33.00 11.23 L 32.90 9.78 C 29.69 9.79 26.49 9.72 23.28 9.74 C 23.31 6.49 23.35 3.25 23.37 0.00 M 13.62 25.64 C 14.14 26.63 14.65 27.63 15.15 28.64 C 14.76 29.36 13.98 30.79 13.59 31.50 C 14.33 31.13 15.80 30.39 16.54 30.02 C 17.53 30.48 18.49 30.97 19.44 31.49 C 18.90 30.56 18.40 29.61 17.95 28.63 C 18.30 27.88 19.01 26.37 19.36 25.62 C 18.42 26.19 17.48 26.76 16.53 27.31 C 15.80 26.90 14.35 26.06 13.62 25.64 M 25.52 25.59 C 25.84 26.38 26.49 27.96 26.82 28.75 C 26.27 29.64 25.72 30.53 25.16 31.42 C 25.92 31.05 27.42 30.32 28.18 29.95 C 29.19 30.47 30.22 30.98 31.26 31.45 C 30.58 30.51 29.92 29.57 29.30 28.59 C 29.97 27.68 30.63 26.76 31.29 25.84 C 30.17 26.32 29.06 26.84 27.97 27.39 C 27.36 26.94 26.13 26.04 25.52 25.59 Z" />
<path fill="#ffffff" opacity="1.00" d=" M 2.94 4.89 C 4.35 3.92 5.84 3.91 7.26 4.88 C 6.51 5.79 5.75 6.69 4.96 7.57 C 4.28 6.68 3.61 5.79 2.94 4.89 Z" />
<path fill="#ffffff" opacity="1.00" d=" M 0.00 11.21 C 3.27 11.22 6.54 11.29 9.81 11.28 C 9.77 14.78 9.76 18.28 9.80 21.79 C 6.53 21.79 3.27 21.81 0.00 21.81 L 0.00 11.21 Z" />
<path fill="#ffffff" opacity="1.00" d=" M 11.24 11.28 C 14.77 11.25 18.31 11.25 21.84 11.29 C 21.76 14.78 21.76 18.28 21.83 21.78 C 18.30 21.81 14.77 21.81 11.24 21.78 C 11.29 18.28 11.29 14.78 11.24 11.28 M 13.78 18.23 C 15.24 20.77 18.81 19.53 19.37 16.96 C 19.69 14.77 17.37 13.94 16.00 12.83 C 14.60 14.21 11.58 16.15 13.78 18.23 Z" />
<path fill="#ffffff" opacity="1.00" d=" M 15.21 15.42 C 16.51 14.01 18.90 16.26 17.38 17.57 C 16.05 19.03 13.74 16.77 15.21 15.42 Z" />
</g>
<g id="#da3f4dff">
<path fill="#da3f4d" opacity="1.00" d=" M 9.77 0.00 L 11.33 0.00 C 11.31 3.25 11.27 6.50 11.24 9.75 C 14.77 9.75 18.30 9.75 21.82 9.74 C 21.78 6.50 21.78 3.25 21.79 0.00 L 23.37 0.00 C 23.35 3.25 23.31 6.49 23.28 9.74 C 26.49 9.72 29.69 9.79 32.90 9.78 L 33.00 11.23 C 29.76 11.22 26.53 11.29 23.29 11.27 C 23.33 14.78 23.33 18.28 23.30 21.79 C 26.82 21.92 30.64 21.07 33.85 22.96 C 30.34 23.37 26.80 23.35 23.28 23.33 C 23.34 26.52 23.31 29.71 23.34 32.90 L 21.75 32.80 C 21.78 29.64 21.79 26.48 21.84 23.32 C 18.30 23.31 14.77 23.31 11.24 23.32 C 11.29 26.50 11.28 29.69 11.30 32.88 L 9.74 32.81 C 9.77 29.65 9.77 26.49 9.82 23.33 C 6.55 23.34 3.27 23.27 0.00 23.26 L 0.00 21.81 C 3.27 21.81 6.53 21.79 9.80 21.79 C 9.76 18.28 9.77 14.78 9.81 11.28 C 6.54 11.29 3.27 11.22 0.00 11.21 L 0.00 9.78 C 3.27 9.83 6.55 9.82 9.82 9.76 C 9.78 6.51 9.82 3.25 9.77 0.00 M 11.24 11.28 C 11.29 14.78 11.29 18.28 11.24 21.78 C 14.77 21.81 18.30 21.81 21.83 21.78 C 21.76 18.28 21.76 14.78 21.84 11.29 C 18.31 11.25 14.77 11.25 11.24 11.28 Z" />
<path fill="#da3f4d" opacity="1.00" d=" M 1.64 4.27 C 2.79 3.43 3.92 2.57 5.06 1.72 C 6.04 2.49 7.03 3.25 8.04 4.00 C 8.06 4.73 8.10 6.19 8.13 6.92 C 6.87 7.44 5.64 8.71 4.18 8.20 C 2.27 7.88 2.18 5.71 1.64 4.27 M 2.94 4.89 C 3.61 5.79 4.28 6.68 4.96 7.57 C 5.75 6.69 6.51 5.79 7.26 4.88 C 5.84 3.91 4.35 3.92 2.94 4.89 Z" />
<path fill="#da3f4d" opacity="1.00" d=" M 13.78 18.23 C 11.58 16.15 14.60 14.21 16.00 12.83 C 17.37 13.94 19.69 14.77 19.37 16.96 C 18.81 19.53 15.24 20.77 13.78 18.23 M 15.21 15.42 C 13.74 16.77 16.05 19.03 17.38 17.57 C 18.90 16.26 16.51 14.01 15.21 15.42 Z" />
<path fill="#da3f4d" opacity="1.00" d=" M 13.62 25.64 C 14.35 26.06 15.80 26.90 16.53 27.31 C 17.48 26.76 18.42 26.19 19.36 25.62 C 19.01 26.37 18.30 27.88 17.95 28.63 C 18.40 29.61 18.90 30.56 19.44 31.49 C 18.49 30.97 17.53 30.48 16.54 30.02 C 15.80 30.39 14.33 31.13 13.59 31.50 C 13.98 30.79 14.76 29.36 15.15 28.64 C 14.65 27.63 14.14 26.63 13.62 25.64 Z" />
<path fill="#da3f4d" opacity="1.00" d=" M 25.52 25.59 C 26.13 26.04 27.36 26.94 27.97 27.39 C 29.06 26.84 30.17 26.32 31.29 25.84 C 30.63 26.76 29.97 27.68 29.30 28.59 C 29.92 29.57 30.58 30.51 31.26 31.45 C 30.22 30.98 29.19 30.47 28.18 29.95 C 27.42 30.32 25.92 31.05 25.16 31.42 C 25.72 30.53 26.27 29.64 26.82 28.75 C 26.49 27.96 25.84 26.38 25.52 25.59 Z" />
</g>
</svg>
