<?xml version="1.0" encoding="UTF-8" ?>
<!DOCTYPE svg PUBLIC "-//W3C//DTD SVG 1.1//EN" "http://www.w3.org/Graphics/SVG/1.1/DTD/svg11.dtd">
<svg width="37pt" height="41pt" viewBox="0 0 37 41" version="1.1" xmlns="http://www.w3.org/2000/svg">
<g id="#ffffffff">
<path fill="#ffffff" opacity="1.00" d=" M 0.00 0.00 L 9.17 0.00 C 6.10 5.31 3.02 10.62 0.00 15.95 L 0.00 0.00 Z" />
<path fill="#ffffff" opacity="1.00" d=" M 27.75 0.00 L 37.00 0.00 L 37.00 15.82 C 33.91 10.55 31.10 5.11 27.75 0.00 Z" />
<path fill="#ffffff" opacity="1.00" d=" M 10.06 1.73 C 15.69 1.73 21.32 1.63 26.95 1.67 C 29.62 6.51 32.65 11.17 35.07 16.14 C 33.22 21.10 29.88 25.38 27.54 30.13 C 27.24 29.79 26.64 29.11 26.33 28.77 C 26.99 27.76 27.65 26.74 28.32 25.73 C 27.08 22.36 22.77 22.69 21.34 19.63 C 20.43 18.17 19.61 16.66 18.75 15.18 C 17.95 16.23 17.15 17.29 16.35 18.35 C 15.60 17.20 14.91 16.00 14.00 14.97 C 12.74 13.98 11.11 14.67 9.70 14.78 C 8.55 14.09 7.40 13.37 6.14 12.88 C 3.74 13.72 1.65 16.81 3.75 18.99 C 5.14 20.98 7.41 20.24 9.33 19.66 C 8.64 21.36 6.25 23.20 7.75 25.09 C 8.54 26.31 9.87 27.02 10.93 27.98 C 10.64 28.59 10.07 29.80 9.78 30.40 C 7.11 25.67 3.91 21.15 1.93 16.09 C 4.42 11.19 7.48 6.59 10.06 1.73 M 21.94 2.67 C 21.26 3.81 20.53 4.92 19.97 6.12 C 20.02 8.43 22.51 10.61 24.85 9.97 C 26.46 9.01 28.06 7.07 27.11 5.10 C 26.47 2.81 23.80 3.02 21.94 2.67 M 25.40 20.61 C 27.95 22.31 29.97 19.40 31.43 17.70 C 30.20 16.20 29.39 13.51 26.99 13.87 C 23.42 13.73 22.10 19.08 25.40 20.61 Z" />
<path fill="#ffffff" opacity="1.00" d=" M 21.93 4.85 C 23.63 4.04 25.67 4.63 26.02 6.65 C 25.12 7.89 23.59 7.96 22.22 8.23 C 22.15 7.38 22.01 5.70 21.93 4.85 Z" />
<path fill="#ffffff" opacity="1.00" d=" M 5.30 14.99 C 6.89 14.79 8.35 15.22 8.59 17.01 C 7.98 18.13 6.92 19.00 5.58 18.74 C 4.30 17.60 4.21 16.35 5.30 14.99 Z" />
<path fill="#ffffff" opacity="1.00" d=" M 11.45 16.23 C 13.10 15.20 15.27 18.22 13.40 19.45 C 11.39 21.60 8.21 17.20 11.45 16.23 Z" />
<path fill="#ffffff" opacity="1.00" d=" M 25.52 16.44 C 26.52 14.43 29.77 15.87 28.89 17.94 C 28.87 20.84 23.17 18.48 25.52 16.44 Z" />
<path fill="#ffffff" opacity="1.00" d=" M 0.00 16.71 C 2.85 21.82 5.77 26.90 8.78 31.92 C 6.98 34.97 5.30 38.10 3.27 41.00 L 0.00 41.00 L 0.00 16.71 Z" />
<path fill="#ffffff" opacity="1.00" d=" M 18.09 17.67 C 19.25 19.39 20.33 21.16 21.42 22.93 C 20.92 24.50 20.03 26.20 21.08 27.77 C 22.69 29.10 24.71 29.79 26.49 30.85 C 23.40 30.99 20.31 30.98 17.23 31.06 C 19.02 29.34 19.47 27.07 18.40 24.79 C 18.88 24.28 19.83 23.25 20.30 22.74 C 19.60 21.03 18.82 19.36 18.09 17.67 Z" />
<path fill="#ffffff" opacity="1.00" d=" M 28.33 31.92 C 31.24 26.96 34.10 21.97 37.00 17.01 L 37.00 41.00 L 33.54 41.00 C 31.76 37.99 30.11 34.92 28.33 31.92 Z" />
<path fill="#ffffff" opacity="1.00" d=" M 15.67 23.84 C 15.10 22.62 16.23 21.07 17.42 20.71 C 19.35 21.32 17.27 24.88 15.67 23.84 Z" />
<path fill="#ffffff" opacity="1.00" d=" M 9.03 23.02 C 9.80 21.08 12.12 21.90 13.10 23.21 C 12.72 24.43 11.83 25.38 11.14 26.43 C 10.27 25.40 8.59 24.64 9.03 23.02 Z" />
<path fill="#ffffff" opacity="1.00" d=" M 24.33 24.11 C 25.60 23.48 26.72 25.58 25.86 26.50 C 24.65 27.07 23.51 25.01 24.33 24.11 Z" />
<path fill="#ffffff" opacity="1.00" d=" M 22.11 25.37 C 23.29 24.72 24.61 26.66 23.84 27.64 C 22.66 28.29 21.29 26.36 22.11 25.37 Z" />
<path fill="#ffffff" opacity="1.00" d=" M 14.14 26.10 C 15.76 24.91 16.87 26.52 18.01 27.49 C 17.43 28.11 16.28 29.34 15.71 29.95 C 14.65 28.83 12.77 27.79 14.14 26.10 Z" />
<path fill="#ffffff" opacity="1.00" d=" M 11.45 30.93 C 11.06 29.76 11.52 29.22 12.85 29.30 C 13.02 29.71 13.36 30.54 13.53 30.95 C 13.01 30.94 11.97 30.93 11.45 30.93 Z" />
<path fill="#ffffff" opacity="1.00" d=" M 10.07 32.91 C 15.71 32.98 21.35 33.03 26.98 32.92 C 28.53 35.64 30.02 38.39 31.76 41.00 L 5.40 41.00 C 7.07 38.37 8.54 35.62 10.07 32.91 Z" />
</g>
<g id="#df5b67ff">
<path fill="#df5b67" opacity="1.00" d=" M 9.17 0.00 L 27.75 0.00 C 31.10 5.11 33.91 10.55 37.00 15.82 L 37.00 17.01 C 34.10 21.97 31.24 26.96 28.33 31.92 C 30.11 34.92 31.76 37.99 33.54 41.00 L 31.76 41.00 C 30.02 38.39 28.53 35.64 26.98 32.92 C 21.35 33.03 15.71 32.98 10.07 32.91 C 8.54 35.62 7.07 38.37 5.40 41.00 L 3.27 41.00 C 5.30 38.10 6.98 34.97 8.78 31.92 C 5.77 26.90 2.85 21.82 0.00 16.71 L 0.00 15.95 C 3.02 10.62 6.10 5.31 9.17 0.00 M 10.06 1.73 C 7.48 6.59 4.42 11.19 1.93 16.09 C 3.91 21.15 7.11 25.67 9.78 30.40 C 10.07 29.80 10.64 28.59 10.93 27.98 C 9.87 27.02 8.54 26.31 7.75 25.09 C 6.25 23.20 8.64 21.36 9.33 19.66 C 7.41 20.24 5.14 20.98 3.75 18.99 C 1.65 16.81 3.74 13.72 6.14 12.88 C 7.40 13.37 8.55 14.09 9.70 14.78 C 11.11 14.67 12.74 13.98 14.00 14.97 C 14.91 16.00 15.60 17.20 16.35 18.35 C 17.15 17.29 17.95 16.23 18.75 15.18 C 19.61 16.66 20.43 18.17 21.34 19.63 C 22.77 22.69 27.08 22.36 28.32 25.73 C 27.65 26.74 26.99 27.76 26.33 28.77 C 26.64 29.11 27.24 29.79 27.54 30.13 C 29.88 25.38 33.22 21.10 35.07 16.14 C 32.65 11.17 29.62 6.51 26.95 1.67 C 21.32 1.63 15.69 1.73 10.06 1.73 M 5.30 14.99 C 4.21 16.35 4.30 17.60 5.58 18.74 C 6.92 19.00 7.98 18.13 8.59 17.01 C 8.35 15.22 6.89 14.79 5.30 14.99 M 11.45 16.23 C 8.21 17.20 11.39 21.60 13.40 19.45 C 15.27 18.22 13.10 15.20 11.45 16.23 M 18.09 17.67 C 18.82 19.36 19.60 21.03 20.30 22.74 C 19.83 23.25 18.88 24.28 18.40 24.79 C 19.47 27.07 19.02 29.34 17.23 31.06 C 20.31 30.98 23.40 30.99 26.49 30.85 C 24.71 29.79 22.69 29.10 21.08 27.77 C 20.03 26.20 20.92 24.50 21.42 22.93 C 20.33 21.16 19.25 19.39 18.09 17.67 M 15.67 23.84 C 17.27 24.88 19.35 21.32 17.42 20.71 C 16.23 21.07 15.10 22.62 15.67 23.84 M 9.03 23.02 C 8.59 24.64 10.27 25.40 11.14 26.43 C 11.83 25.38 12.72 24.43 13.10 23.21 C 12.12 21.90 9.80 21.08 9.03 23.02 M 24.33 24.11 C 23.51 25.01 24.65 27.07 25.86 26.50 C 26.72 25.58 25.60 23.48 24.33 24.11 M 22.11 25.37 C 21.29 26.36 22.66 28.29 23.84 27.64 C 24.61 26.66 23.29 24.72 22.11 25.37 M 14.14 26.10 C 12.77 27.79 14.65 28.83 15.71 29.95 C 16.28 29.34 17.43 28.11 18.01 27.49 C 16.87 26.52 15.76 24.91 14.14 26.10 M 11.45 30.93 C 11.97 30.93 13.01 30.94 13.53 30.95 C 13.36 30.54 13.02 29.71 12.85 29.30 C 11.52 29.22 11.06 29.76 11.45 30.93 Z" />
<path fill="#df5b67" opacity="1.00" d=" M 21.94 2.67 C 23.80 3.02 26.47 2.81 27.11 5.10 C 28.06 7.07 26.46 9.01 24.85 9.97 C 22.51 10.61 20.02 8.43 19.97 6.12 C 20.53 4.92 21.26 3.81 21.94 2.67 M 21.93 4.85 C 22.01 5.70 22.15 7.38 22.22 8.23 C 23.59 7.96 25.12 7.89 26.02 6.65 C 25.67 4.63 23.63 4.04 21.93 4.85 Z" />
<path fill="#df5b67" opacity="1.00" d=" M 25.40 20.61 C 22.10 19.08 23.42 13.73 26.99 13.87 C 29.39 13.51 30.20 16.20 31.43 17.70 C 29.97 19.40 27.95 22.31 25.40 20.61 M 25.52 16.44 C 23.17 18.48 28.87 20.84 28.89 17.94 C 29.77 15.87 26.52 14.43 25.52 16.44 Z" />
</g>
</svg>
