<?xml version="1.0" encoding="UTF-8" ?>
<!DOCTYPE svg PUBLIC "-//W3C//DTD SVG 1.1//EN" "http://www.w3.org/Graphics/SVG/1.1/DTD/svg11.dtd">
<svg width="34pt" height="34pt" viewBox="0 0 34 34" version="1.1" xmlns="http://www.w3.org/2000/svg">
<g id="#ffffffff">
<path fill="#ffffff" opacity="1.00" d=" M 0.00 0.00 L 0.19 0.00 C 0.31 0.76 0.55 2.29 0.67 3.05 C 1.67 3.66 2.87 3.52 3.99 3.57 C 13.94 3.39 23.90 3.64 33.85 3.50 C 33.68 2.62 33.35 0.87 33.18 0.00 L 34.00 0.00 L 34.00 34.00 L 13.51 34.00 C 15.39 31.51 17.43 29.15 19.46 26.78 C 15.76 26.86 14.78 31.08 11.72 32.40 C 12.72 30.61 14.09 29.06 14.98 27.22 C 14.29 26.43 13.54 25.71 12.73 25.07 C 10.85 25.41 9.66 27.22 8.36 28.48 C 5.83 30.64 10.15 32.50 11.43 34.00 L 8.06 34.00 C 9.11 31.14 4.26 31.01 5.05 34.00 L 0.00 34.00 L 0.00 0.00 M 0.88 5.55 C 0.69 11.08 0.80 16.62 0.90 22.15 C 4.86 22.18 9.00 22.89 12.85 21.90 C 15.60 19.63 17.65 16.50 20.99 14.98 C 22.75 13.82 25.82 11.93 26.91 14.91 C 26.47 17.57 24.46 19.67 23.53 22.18 C 26.72 22.40 29.92 22.39 33.10 22.18 C 32.81 16.66 33.83 10.81 32.62 5.49 C 22.06 5.24 11.45 5.25 0.88 5.55 M 14.18 22.99 C 13.36 24.82 15.68 25.65 16.86 26.37 C 20.35 23.05 23.77 19.51 25.28 14.82 C 20.84 16.37 17.06 19.30 14.18 22.99 Z" />
<path fill="#ffffff" opacity="1.00" d=" M 3.36 9.78 C 7.11 8.77 11.14 9.51 15.00 9.30 C 16.26 9.05 16.97 9.58 17.13 10.88 C 12.63 11.01 8.13 11.16 3.64 10.88 L 3.36 9.78 Z" />
<path fill="#ffffff" opacity="1.00" d=" M 22.32 9.40 C 25.09 9.18 27.88 9.24 30.65 9.44 C 30.67 9.74 30.71 10.33 30.73 10.63 C 27.69 11.36 24.53 10.94 21.44 10.89 C 21.66 10.52 22.10 9.77 22.32 9.40 Z" />
<path fill="#ffffff" opacity="1.00" d=" M 3.57 13.32 C 8.06 12.81 12.59 13.13 17.10 13.21 C 16.95 13.58 16.65 14.31 16.51 14.68 C 12.05 15.02 7.56 14.80 3.10 14.71 C 3.22 14.36 3.45 13.67 3.57 13.32 Z" />
</g>
<g id="#da3e4cff">
<path fill="#da3e4c" opacity="1.00" d=" M 0.19 0.00 L 33.18 0.00 C 33.35 0.87 33.68 2.62 33.85 3.50 C 23.90 3.64 13.94 3.39 3.99 3.57 C 2.87 3.52 1.67 3.66 0.67 3.05 C 0.55 2.29 0.31 0.76 0.19 0.00 Z" />
<path fill="#da3e4c" opacity="1.00" d=" M 0.88 5.55 C 11.45 5.25 22.06 5.24 32.62 5.49 C 33.83 10.81 32.81 16.66 33.10 22.18 C 29.92 22.39 26.72 22.40 23.53 22.18 C 24.46 19.67 26.47 17.57 26.91 14.91 C 25.82 11.93 22.75 13.82 20.99 14.98 C 17.65 16.50 15.60 19.63 12.85 21.90 C 9.00 22.89 4.86 22.18 0.90 22.15 C 0.80 16.62 0.69 11.08 0.88 5.55 M 3.36 9.78 L 3.64 10.88 C 8.13 11.16 12.63 11.01 17.13 10.88 C 16.97 9.58 16.26 9.05 15.00 9.30 C 11.14 9.51 7.11 8.77 3.36 9.78 M 22.32 9.40 C 22.10 9.77 21.66 10.52 21.44 10.89 C 24.53 10.94 27.69 11.36 30.73 10.63 C 30.71 10.33 30.67 9.74 30.65 9.44 C 27.88 9.24 25.09 9.18 22.32 9.40 M 3.57 13.32 C 3.45 13.67 3.22 14.36 3.10 14.71 C 7.56 14.80 12.05 15.02 16.51 14.68 C 16.65 14.31 16.95 13.58 17.10 13.21 C 12.59 13.13 8.06 12.81 3.57 13.32 Z" />
<path fill="#da3e4c" opacity="1.00" d=" M 14.18 22.99 C 17.06 19.30 20.84 16.37 25.28 14.82 C 23.77 19.51 20.35 23.05 16.86 26.37 C 15.68 25.65 13.36 24.82 14.18 22.99 Z" />
<path fill="#da3e4c" opacity="1.00" d=" M 8.36 28.48 C 9.66 27.22 10.85 25.41 12.73 25.07 C 13.54 25.71 14.29 26.43 14.98 27.22 C 14.09 29.06 12.72 30.61 11.72 32.40 C 14.78 31.08 15.76 26.86 19.46 26.78 C 17.43 29.15 15.39 31.51 13.51 34.00 L 11.43 34.00 C 10.15 32.50 5.83 30.64 8.36 28.48 Z" />
<path fill="#da3e4c" opacity="1.00" d=" M 5.05 34.00 C 4.26 31.01 9.11 31.14 8.06 34.00 L 5.05 34.00 Z" />
</g>
</svg>
