<?xml version="1.0" encoding="UTF-8" ?>
<!DOCTYPE svg PUBLIC "-//W3C//DTD SVG 1.1//EN" "http://www.w3.org/Graphics/SVG/1.1/DTD/svg11.dtd">
<svg width="33pt" height="33pt" viewBox="0 0 33 33" version="1.1" xmlns="http://www.w3.org/2000/svg">
<g id="#ffffffff">
<path fill="#ffffff" opacity="1.00" d=" M 0.00 0.00 L 16.39 0.00 C 8.25 0.17 0.84 6.86 0.25 15.04 C -0.80 23.61 6.01 32.02 14.54 33.00 L 0.00 33.00 L 0.00 0.00 Z" />
<path fill="#ffffff" opacity="1.00" d=" M 18.15 0.00 L 33.00 0.00 L 33.00 15.55 C 32.56 7.60 25.92 1.03 18.15 0.00 Z" />
<path fill="#ffffff" opacity="1.00" d=" M 13.44 2.52 C 21.82 0.35 30.89 7.32 30.88 15.97 C 31.53 23.70 24.80 31.02 17.04 31.04 C 9.70 31.49 2.85 25.34 2.32 18.05 C 1.44 11.05 6.51 3.90 13.44 2.52 M 15.22 7.31 C 13.08 8.66 15.70 11.98 17.65 10.56 C 20.20 9.32 17.36 4.88 15.22 7.31 M 15.37 14.38 L 14.72 14.96 C 14.51 18.65 14.21 22.42 14.95 26.06 C 16.34 26.88 17.50 26.69 18.44 25.51 C 18.76 22.14 18.79 18.72 18.46 15.35 C 18.55 14.18 16.03 13.22 15.37 14.38 Z" />
<path fill="#ffffff" opacity="1.00" d=" M 18.49 33.00 C 26.01 32.22 32.11 25.75 33.00 18.33 L 33.00 33.00 L 18.49 33.00 Z" />
</g>
<g id="#da3f4dff">
<path fill="#da3f4d" opacity="1.00" d=" M 16.39 0.00 L 18.15 0.00 C 25.92 1.03 32.56 7.60 33.00 15.55 L 33.00 18.33 C 32.11 25.75 26.01 32.22 18.49 33.00 L 14.54 33.00 C 6.01 32.02 -0.80 23.61 0.25 15.04 C 0.84 6.86 8.25 0.17 16.39 0.00 M 13.44 2.52 C 6.51 3.90 1.44 11.05 2.32 18.05 C 2.85 25.34 9.70 31.49 17.04 31.04 C 24.80 31.02 31.53 23.70 30.88 15.97 C 30.89 7.32 21.82 0.35 13.44 2.52 Z" />
<path fill="#da3f4d" opacity="1.00" d=" M 15.22 7.31 C 17.36 4.88 20.20 9.32 17.65 10.56 C 15.70 11.98 13.08 8.66 15.22 7.31 Z" />
<path fill="#da3f4d" opacity="1.00" d=" M 15.37 14.38 C 16.03 13.22 18.55 14.18 18.46 15.35 C 18.79 18.72 18.76 22.14 18.44 25.51 C 17.50 26.69 16.34 26.88 14.95 26.06 C 14.21 22.42 14.51 18.65 14.72 14.96 L 15.37 14.38 Z" />
</g>
</svg>
