<?xml version="1.0" encoding="UTF-8" ?>
<!DOCTYPE svg PUBLIC "-//W3C//DTD SVG 1.1//EN" "http://www.w3.org/Graphics/SVG/1.1/DTD/svg11.dtd">
<svg width="34pt" height="33pt" viewBox="0 0 34 33" version="1.1" xmlns="http://www.w3.org/2000/svg">
<g id="#ffffffff">
<path fill="#ffffff" opacity="1.00" d=" M 0.00 0.00 L 34.00 0.00 L 34.00 3.25 C 31.23 2.26 28.28 1.80 25.69 0.33 C 19.63 0.01 13.57 0.21 7.50 0.13 C 7.32 0.56 6.97 1.42 6.79 1.85 C 4.48 2.10 2.12 2.31 0.00 3.32 L 0.00 0.00 Z" />
<path fill="#ffffff" opacity="1.00" d=" M 2.25 4.12 C 3.94 4.12 5.62 4.13 7.31 4.14 C 7.58 7.16 7.97 10.17 8.47 13.16 C 3.37 13.44 2.27 8.12 2.25 4.12 Z" />
<path fill="#ffffff" opacity="1.00" d=" M 26.87 4.05 C 28.56 4.10 30.26 4.15 31.95 4.22 C 31.49 6.79 31.62 9.77 29.75 11.82 C 28.49 12.61 27.02 12.97 25.64 13.47 C 26.12 10.34 26.56 7.20 26.87 4.05 Z" />
<path fill="#ffffff" opacity="1.00" d=" M 0.00 6.50 C 0.62 9.27 1.37 12.48 3.94 14.10 C 5.78 14.95 7.85 14.99 9.82 15.27 C 11.43 16.96 12.97 18.71 14.49 20.48 C 16.20 20.45 17.91 20.45 19.61 20.47 C 21.14 18.71 22.68 16.97 24.27 15.27 C 26.22 15.02 28.25 14.95 30.07 14.15 C 32.37 12.81 33.18 10.06 34.00 7.70 L 34.00 33.00 L 26.83 33.00 C 24.04 29.61 20.90 26.36 19.68 22.00 C 17.93 21.99 16.17 21.99 14.42 22.00 C 13.23 26.42 10.10 29.79 7.02 33.00 L 0.00 33.00 L 0.00 6.50 Z" />
</g>
<g id="#da3e4cff">
<path fill="#da3e4c" opacity="1.00" d=" M 7.50 0.13 C 13.57 0.21 19.63 0.01 25.69 0.33 C 28.28 1.80 31.23 2.26 34.00 3.25 L 34.00 7.70 C 33.18 10.06 32.37 12.81 30.07 14.15 C 28.25 14.95 26.22 15.02 24.27 15.27 C 22.68 16.97 21.14 18.71 19.61 20.47 C 17.91 20.45 16.20 20.45 14.49 20.48 C 12.97 18.71 11.43 16.96 9.82 15.27 C 7.85 14.99 5.78 14.95 3.94 14.10 C 1.37 12.48 0.62 9.27 0.00 6.50 L 0.00 3.32 C 2.12 2.31 4.48 2.10 6.79 1.85 C 6.97 1.42 7.32 0.56 7.50 0.13 M 2.25 4.12 C 2.27 8.12 3.37 13.44 8.47 13.16 C 7.97 10.17 7.58 7.16 7.31 4.14 C 5.62 4.13 3.94 4.12 2.25 4.12 M 26.87 4.05 C 26.56 7.20 26.12 10.34 25.64 13.47 C 27.02 12.97 28.49 12.61 29.75 11.82 C 31.62 9.77 31.49 6.79 31.95 4.22 C 30.26 4.15 28.56 4.10 26.87 4.05 Z" />
<path fill="#da3e4c" opacity="1.00" d=" M 14.42 22.00 C 16.17 21.99 17.93 21.99 19.68 22.00 C 20.90 26.36 24.04 29.61 26.83 33.00 L 7.02 33.00 C 10.10 29.79 13.23 26.42 14.42 22.00 Z" />
</g>
</svg>
